# Blender 4.2.3 LTS
# www.blender.org
o Null_1_Mesh
v -0.076861 0.024319 0.076860
v -0.076861 0.798106 0.076860
v 0.076861 0.024319 0.076860
v 0.076861 0.798106 0.076860
v 0.076861 0.024319 -0.076861
v 0.076861 0.798106 -0.076861
v -0.076861 0.024319 -0.076861
v -0.076861 0.798106 -0.076861
v -0.036201 0.798106 0.036201
v 0.036201 0.798106 0.036201
v 0.036201 0.798106 -0.036201
v -0.036201 0.798106 -0.036201
v -0.036201 2.733385 0.036202
v 0.036201 2.733385 0.036202
v 0.036201 2.733385 -0.036201
v -0.036201 2.733385 -0.036201
v 0.076861 0.301403 -0.076861
v -0.076861 0.301403 -0.076861
v -0.076861 0.301403 0.076860
v 0.076861 0.301403 0.076860
v -0.099861 0.024319 0.099860
v 0.099861 0.024319 0.099860
v 0.099861 0.024319 -0.099861
v -0.099861 0.024319 -0.099861
v 0.099861 0.301403 -0.099861
v -0.099861 0.301403 -0.099861
v -0.099861 0.301403 0.099860
v 0.099861 0.301403 0.099860
v 0.079084 2.928371 0.079084
v 0.079084 2.928371 -0.079083
v -0.079084 2.928371 -0.079083
v -0.079084 2.928371 0.079084
v -0.057521 3.012161 -0.057522
v 0.057522 3.012161 -0.057521
v 0.057521 3.012161 0.057522
v -0.057522 3.012161 0.057521
v -0.077832 2.738200 -0.077832
v 0.077833 2.738200 -0.077831
v 0.077832 2.738200 0.077833
v -0.077832 2.738199 0.077832
v -0.070646 2.745385 0.082647
v -0.082646 2.745385 0.070647
v -0.070646 2.733385 0.070647
v 0.070646 2.733385 0.070647
v 0.082646 2.745385 0.070647
v 0.070646 2.745385 0.082647
v 0.070646 2.733385 -0.070646
v 0.070646 2.745385 -0.082646
v 0.082646 2.745385 -0.070646
v -0.070646 2.733385 -0.070646
v -0.082646 2.745385 -0.070646
v -0.070646 2.745385 -0.082646
v -0.082646 2.928371 0.070483
v -0.070482 2.928371 0.082647
v 0.082646 2.928371 0.070483
v 0.070482 2.928371 0.082647
v 0.070482 2.928371 -0.082646
v 0.082646 2.928371 -0.070482
v -0.082646 2.928371 -0.070482
v -0.070482 2.928371 -0.082646
v -0.051738 3.005091 0.064066
v -0.049241 3.016754 0.049241
v -0.064066 3.005091 0.051738
v 0.064066 3.005091 0.051738
v 0.049241 3.016754 0.049241
v 0.051738 3.005091 0.064066
v 0.051738 3.005091 -0.064065
v 0.049241 3.016754 -0.049241
v 0.064066 3.005091 -0.051737
v -0.064066 3.005091 -0.051737
v -0.049241 3.016754 -0.049241
v -0.051738 3.005091 -0.064065
v -0.079132 2.736900 0.070647
v -0.079132 2.745385 0.079132
v -0.070646 2.736900 0.079132
v 0.079132 2.745385 0.079132
v 0.079132 2.736900 0.070647
v 0.070646 2.736900 0.079132
v 0.079132 2.745385 -0.079132
v 0.070646 2.736900 -0.079132
v 0.079132 2.736900 -0.070646
v -0.079132 2.745385 -0.079132
v -0.079132 2.736900 -0.070646
v -0.070646 2.736900 -0.079132
v -0.058670 3.013486 0.049941
v -0.049941 3.013486 0.058670
v -0.060432 3.005220 0.060433
v 0.049941 3.013486 0.058670
v 0.058670 3.013486 0.049941
v 0.060432 3.005220 0.060433
v 0.058670 3.013486 -0.049940
v 0.049941 3.013486 -0.058670
v 0.060432 3.005220 -0.060432
v -0.049941 3.013486 -0.058670
v -0.058670 3.013486 -0.049940
v -0.060432 3.005220 -0.060432
v 0.082646 2.928371 0.185814
v 0.082646 2.928371 -0.185814
v 0.061241 3.016754 0.137689
v 0.061241 3.016754 -0.137688
v 0.600926 3.068912 0.126168
v 0.600926 3.068912 -0.126168
v 0.586392 3.128923 0.093491
v 0.586392 3.128923 -0.093490
v 0.600926 3.068912 0.056840
v 0.586392 3.128923 0.042118
v 0.061241 3.016754 0.062030
v 0.082646 2.928371 0.083711
v 0.600926 3.068912 -0.059470
v 0.586392 3.128923 -0.044067
v 0.061241 3.016754 -0.064900
v 0.082646 2.928371 -0.087585
v -0.154833 2.928371 -0.185814
v -0.158419 3.002735 0.145322
v -0.158327 3.002663 0.065486
v -0.154833 2.928371 -0.087585
v -0.154833 2.928371 0.185814
v -0.158330 3.002665 -0.068516
v -0.158419 3.002735 -0.145321
v -0.154833 2.928371 0.083711
v -0.043903 2.928371 0.083711
v -0.065309 3.016754 0.062030
v -0.065309 3.016754 0.137689
v -0.043903 2.928371 0.185814
v -0.065478 2.928371 -0.185814
v -0.065478 2.928371 -0.087585
v -0.086883 3.016754 -0.064900
v -0.086883 3.016754 -0.137688
v 0.082646 2.820382 0.096558
v 0.082646 2.820382 0.083711
v -0.043903 2.820382 0.083711
v -0.043903 2.820382 0.096558
v 0.082646 2.820382 -0.096557
v 0.082646 2.820382 -0.087585
v -0.065478 2.820382 -0.096557
v -0.065478 2.820382 -0.087585
v -0.129238 3.016754 -0.137688
v -0.165175 2.971074 -0.162561
v -0.165175 2.971074 -0.076625
v -0.129238 3.016754 -0.064900
v -0.165175 2.971074 0.162562
v -0.129238 3.016754 0.137689
v -0.129238 3.016754 0.062030
v -0.165175 2.971074 0.073235
v 0.526791 3.116193 -0.046432
v 0.526791 3.116193 -0.098506
v 0.542105 3.052961 -0.132937
v 0.542105 3.052961 -0.062661
v 0.542105 3.052961 0.059889
v 0.542105 3.052961 0.132938
v 0.526791 3.116193 0.098507
v 0.526791 3.116193 0.044378
v 0.079106 2.941429 0.083711
v 0.079106 2.941429 -0.087585
v 0.538564 3.066019 -0.062661
v 0.538564 3.066019 0.059889
v -0.174683 -0.025396 0.174683
v -0.174683 0.025396 0.174683
v 0.174683 -0.025396 0.174683
v 0.174683 0.025396 0.174683
v 0.174683 -0.025396 -0.174683
v 0.174683 0.025396 -0.174683
v -0.174683 -0.025396 -0.174683
v -0.174683 0.025396 -0.174683
vn -0.0000 -0.2486 0.9686
vn -0.0000 -0.1669 0.9860
vn -0.0000 0.4782 -0.8782
vn -0.0000 0.4782 0.8782
vn -0.0000 -0.2382 -0.9712
vn -0.0000 -0.1599 -0.9871
vn -0.0000 -0.0000 1.0000
vn 1.0000 -0.0000 -0.0000
vn -0.0000 -0.0000 -1.0000
vn -1.0000 -0.0000 -0.0000
vn -0.0000 1.0000 -0.0000
vn -0.0000 -1.0000 -0.0000
vn 0.1538 0.9751 -0.1597
vn -0.1579 0.9747 0.1579
vn 0.1579 0.9747 0.1579
vn -0.9687 -0.1782 -0.1730
vn -0.9716 0.1383 0.1922
vn -0.9715 0.1384 -0.1923
vn 0.1730 -0.1782 -0.9687
vn -0.1923 0.1384 -0.9715
vn 0.1923 0.1384 -0.9715
vn 0.9687 -0.1782 0.1730
vn 0.9715 0.1383 -0.1922
vn 0.9715 0.1384 0.1923
vn -0.1730 -0.1782 0.9687
vn 0.1923 0.1384 0.9715
vn -0.1923 0.1384 0.9715
vn -0.9020 0.3966 -0.1706
vn -0.8973 0.4095 0.1646
vn -0.1647 0.4096 -0.8973
vn 0.1646 0.4095 -0.8973
vn 0.8973 0.4096 -0.1647
vn 0.8973 0.4095 0.1646
vn 0.1647 0.4096 0.8973
vn -0.1646 0.4095 0.8973
vn -0.1736 -0.9685 -0.1783
vn 0.1769 -0.9682 0.1769
vn -0.1769 -0.9682 0.1769
vn -0.3027 -0.9037 0.3027
vn -0.3791 -0.9179 0.1170
vn 0.1693 -0.1738 0.9701
vn 0.3027 -0.3027 0.9037
vn 0.3791 -0.1168 0.9180
vn 0.9701 -0.1738 -0.1692
vn 0.9037 -0.3027 -0.3027
vn 0.9180 -0.1168 -0.3791
vn -0.1692 -0.1738 -0.9701
vn -0.3027 -0.3027 -0.9037
vn -0.3790 -0.1169 -0.9180
vn -0.8072 0.5228 0.2741
vn -0.5937 0.7944 0.1287
vn 0.2741 0.5229 0.8071
vn 0.1287 0.7944 0.5936
vn 0.8071 0.5229 -0.2740
vn 0.5937 0.7944 -0.1286
vn -0.2740 0.5229 -0.8071
vn -0.1286 0.7944 -0.5936
vn -0.5937 0.7944 -0.1285
vn 0.1285 0.7944 -0.5936
vn 0.5936 0.7944 0.1286
vn -0.1285 0.7944 0.5937
vn -0.3782 0.1531 0.9130
vn -0.3791 -0.9179 -0.1171
vn -0.3782 0.1531 -0.9130
vn 0.1171 -0.9179 -0.3791
vn -0.1171 -0.9179 -0.3791
vn 0.9130 0.1531 -0.3781
vn 0.3791 -0.9179 0.1171
vn 0.1703 -0.9694 -0.1769
vn 0.3791 -0.9179 -0.1171
vn 0.3782 0.1531 0.9130
vn -0.1169 -0.9179 0.3791
vn 0.1170 -0.9179 0.3791
vn -0.3473 0.3949 0.8506
vn -0.3473 0.3949 -0.8506
vn 0.8505 0.3949 -0.3473
vn 0.3473 0.3949 0.8505
vn -0.9701 -0.1737 0.1692
vn -0.9037 -0.3027 0.3027
vn -0.9180 -0.1169 0.3791
vn -0.3027 -0.3028 0.9037
vn -0.1171 -0.3791 0.9179
vn 0.9037 -0.3027 0.3027
vn 0.9179 -0.3791 0.1171
vn 0.3027 -0.9037 0.3028
vn 0.3028 -0.3028 -0.9037
vn 0.1171 -0.3791 -0.9179
vn 0.3028 -0.9037 -0.3027
vn -0.9037 -0.3027 -0.3027
vn -0.9179 -0.3791 -0.1171
vn -0.3028 -0.9037 -0.3028
vn -0.1978 0.9601 0.1978
vn -0.2741 0.5229 0.8071
vn 0.1978 0.9601 0.1978
vn 0.8071 0.5229 0.2741
vn 0.8506 0.3949 0.3473
vn 0.1978 0.9601 -0.1977
vn 0.2742 0.5228 -0.8071
vn 0.3473 0.3949 -0.8506
vn -0.1978 0.9601 -0.1978
vn -0.8071 0.5228 -0.2742
vn -0.8506 0.3949 -0.3473
vn -0.1575 0.9761 -0.1495
vn -0.9130 0.1531 0.3781
vn -0.9179 -0.3791 0.1171
vn -0.9130 0.1531 -0.3781
vn -0.9180 -0.1169 -0.3790
vn -0.1170 -0.3790 -0.9180
vn 0.3782 0.1531 -0.9130
vn 0.3790 -0.1168 -0.9180
vn 0.9179 -0.3791 -0.1170
vn 0.9130 0.1531 0.3781
vn 0.9180 -0.1168 0.3791
vn 0.1169 -0.3791 0.9179
vn -0.8505 0.3949 0.3473
vn -0.9999 -0.0141 0.0001
vn -0.9719 -0.2354 -0.0000
vn -0.9999 -0.0123 0.0005
vn 0.9719 0.2354 -0.0000
vn -0.0269 0.4730 -0.8806
vn 0.2617 -0.9651 -0.0000
vn -0.0269 0.4730 0.8806
vn -0.2089 0.9779 -0.0000
vn -0.1399 0.9902 -0.0000
vn -0.9999 -0.0141 -0.0001
vn -0.9999 -0.0122 -0.0005
vn -0.2227 0.9749 0.0005
vn -0.2236 0.9747 -0.0000
vn -0.2227 0.9749 -0.0006
vn -0.1050 0.9945 -0.0000
vn -0.0133 0.4757 0.8795
vn -0.0135 0.4757 -0.8795
vn -0.0000 -0.6371 0.7708
vn -0.0000 -0.1253 0.9921
vn -0.0000 -0.6371 -0.7708
vn -0.4352 0.9003 0.0003
vn -0.4333 0.9012 0.0013
vn -0.4353 0.9003 -0.0003
vn -0.9779 0.2093 0.0003
vn -0.9774 0.2114 0.0013
vn -0.9779 0.2093 -0.0003
vn -0.9774 0.2116 -0.0013
vn 0.9652 0.2617 -0.0000
vn -0.0482 -0.0131 -0.9988
vn -0.9651 -0.2617 -0.0000
vn -0.0505 -0.0137 0.9986
vn -0.3791 -0.1168 0.9180
vn -0.0000 -0.1200 -0.9928
vn -0.0141 0.4755 0.8796
vn -0.4333 0.9012 -0.0013
vt 0.709269 0.096004
vt 0.731796 0.146053
vt 0.685172 0.114045
vt 0.303587 0.603962
vt 0.302899 0.653783
vt 0.259818 0.620107
vt 0.388799 0.339306
vt 0.335931 0.375263
vt 0.365872 0.318640
vt 0.781187 0.826310
vt 0.735464 0.813675
vt 0.781187 0.771550
vt 0.103208 0.798867
vt 0.244036 0.699135
vt 0.244036 0.798867
vt 0.103208 0.898599
vt 0.244036 0.898599
vt 0.103208 0.998331
vt 0.244036 0.998331
vt 0.103208 0.699135
vt 0.244036 0.599403
vt 0.292460 0.406737
vt 0.328558 0.437514
vt 0.292460 0.437514
vt 0.255726 0.810352
vt 0.333855 0.887114
vt 0.255726 0.887114
vt 0.529289 0.735109
vt 0.509018 0.679727
vt 0.529289 0.699643
vt 0.585658 0.755025
vt 0.565387 0.735109
vt 0.585658 0.679727
vt 0.565387 0.699643
vt 0.001699 0.518458
vt 0.849126 0.482993
vt 0.849126 0.518458
vt 0.001699 0.553924
vt 0.849126 0.553924
vt 0.001699 0.589390
vt 0.849126 0.589390
vt 0.001699 0.482993
vt 0.849126 0.447527
vt 0.509018 0.755025
vt 0.585658 0.998331
vt 0.509018 0.998331
vt 0.432377 0.755025
vt 0.432377 0.998331
vt 0.355737 0.755025
vt 0.355737 0.998331
vt 0.662299 0.998331
vt 0.091518 0.810352
vt 0.001699 0.798867
vt 0.333855 0.810352
vt 0.345545 0.798867
vt 0.091518 0.887114
vt 0.013388 0.887114
vt 0.001699 0.898599
vt 0.345545 0.898599
vt 0.013388 0.810352
vt 0.265046 0.731373
vt 0.320420 0.684443
vt 0.320429 0.731350
vt 0.863212 0.597904
vt 0.951701 0.515681
vt 0.951402 0.597771
vt 0.863211 0.688606
vt 0.951701 0.606384
vt 0.951402 0.688473
vt 0.863211 0.416499
vt 0.951701 0.334276
vt 0.951402 0.416366
vt 0.863211 0.507201
vt 0.951700 0.424978
vt 0.951402 0.507068
vt 0.990660 0.596439
vt 0.990643 0.517017
vt 0.990643 0.607719
vt 0.990660 0.687141
vt 0.990643 0.335612
vt 0.990660 0.415034
vt 0.990643 0.426314
vt 0.990660 0.505736
vt 0.659659 0.633437
vt 0.727480 0.701270
vt 0.659659 0.701270
vt 0.655370 0.705492
vt 0.654620 0.701882
vt 0.863192 0.424722
vt 0.859318 0.420624
vt 0.862517 0.420624
vt 0.863192 0.334020
vt 0.860044 0.329915
vt 0.863217 0.329915
vt 0.863193 0.606127
vt 0.859318 0.602024
vt 0.862518 0.602024
vt 0.995025 0.511310
vt 0.995025 0.515660
vt 0.995025 0.420613
vt 0.995025 0.424963
vt 0.995025 0.329915
vt 0.995025 0.334265
vt 0.995025 0.602008
vt 0.995025 0.606358
vt 0.995025 0.597897
vt 0.995025 0.688595
vt 0.995025 0.416502
vt 0.995025 0.507200
vt 0.951788 0.511320
vt 0.654592 0.632836
vt 0.951788 0.602023
vt 0.728114 0.628540
vt 0.658953 0.628579
vt 0.952014 0.329915
vt 0.732370 0.701923
vt 0.727480 0.633437
vt 0.732338 0.632773
vt 0.951788 0.420617
vt 0.658963 0.706160
vt 0.728124 0.706134
vt 0.991344 0.511311
vt 0.991344 0.602009
vt 0.991390 0.329915
vt 0.991344 0.420613
vt 0.863192 0.515425
vt 0.859318 0.511324
vt 0.862518 0.511324
vt 0.859318 0.508357
vt 0.859318 0.417657
vt 0.731688 0.705477
vt 0.859318 0.692724
vt 0.859318 0.689757
vt 0.731673 0.629215
vt 0.859318 0.599057
vt 0.655354 0.629230
vt 0.326007 0.683451
vt 0.321510 0.679727
vt 0.326007 0.679727
vt 0.321516 0.736089
vt 0.326007 0.732350
vt 0.326007 0.736089
vt 0.259460 0.732365
vt 0.263956 0.736089
vt 0.259460 0.736089
vt 0.994232 0.692724
vt 0.990588 0.692724
vt 0.263950 0.679727
vt 0.259460 0.683466
vt 0.259460 0.679727
vt 0.265038 0.684466
vt 0.859318 0.514243
vt 0.859318 0.604943
vt 0.951251 0.692724
vt 0.862481 0.692724
vt 0.859318 0.332843
vt 0.859318 0.423543
vt 0.634797 0.080576
vt 0.674958 0.057453
vt 0.680829 0.080576
vt 0.315583 0.206608
vt 0.296974 0.177019
vt 0.324008 0.177019
vt 0.643897 0.653725
vt 0.613898 0.619904
vt 0.644400 0.619904
vt 0.314003 0.096984
vt 0.279100 0.122208
vt 0.284712 0.090425
vt 0.039351 0.339104
vt 0.009745 0.372887
vt 0.009249 0.339104
vt 0.037166 0.313013
vt 0.007174 0.314342
vt 0.399251 0.177019
vt 0.379203 0.206608
vt 0.371151 0.177019
vt 0.033499 0.269241
vt 0.271429 0.302635
vt 0.726013 0.868949
vt 0.684637 0.846395
vt 0.731462 0.846311
vt 0.039874 0.374700
vt 0.266623 0.437514
vt 0.033727 0.409509
vt 0.031396 0.244141
vt 0.266304 0.241453
vt 0.879248 0.042317
vt 0.948499 0.004975
vt 0.948516 0.042285
vt 0.948519 0.312389
vt 0.879250 0.047692
vt 0.948519 0.047660
vt 0.685172 0.135308
vt 0.647981 0.114045
vt 0.622342 0.010428
vt 0.622342 0.057453
vt 0.697449 0.782162
vt 0.697449 0.813744
vt 0.726119 0.926080
vt 0.672491 0.869045
vt 0.735464 0.719646
vt 0.735464 0.782117
vt 0.697449 0.719646
vt 0.274418 0.339118
vt 0.335178 0.325513
vt 0.833883 0.709079
vt 0.840338 0.771550
vt 0.833883 0.771550
vt 0.789826 0.220413
vt 0.785241 0.146053
vt 0.789826 0.146053
vt 0.685172 0.209668
vt 0.647981 0.135323
vt 0.375648 0.619904
vt 0.910731 0.709079
vt 0.840338 0.709079
vt 0.894597 0.702737
vt 0.840338 0.702737
vt 0.672731 0.998331
vt 0.726222 0.981697
vt 0.731796 0.220413
vt 0.785241 0.220413
vt 0.602483 0.206608
vt 0.542797 0.148217
vt 0.595173 0.157144
vt 0.861412 0.146053
vt 0.625432 0.204293
vt 0.622342 0.150081
vt 0.625432 0.150081
vt 0.685172 0.097614
vt 0.644032 0.097614
vt 0.735493 0.829657
vt 0.693644 0.829732
vt 0.001699 0.248977
vt 0.613369 0.655539
vt 0.308089 0.130472
vt 0.324315 0.038586
vt 0.003694 0.272799
vt 0.871603 0.312389
vt 0.879250 0.312389
vt 0.948519 0.319902
vt 0.956166 0.312389
vt 0.598849 0.412634
vt 0.624172 0.241500
vt 0.624172 0.412634
vt 0.424667 0.412634
vt 0.598849 0.437514
vt 0.424667 0.437514
vt 0.424667 0.241500
vt 0.399344 0.412634
vt 0.399344 0.241500
vt 0.598849 0.241500
vt 0.424667 0.216621
vt 0.598849 0.216621
vt 0.798355 0.241500
vt 0.798355 0.412634
vt 0.692604 0.099440
vt 0.731796 0.101196
vt 0.259460 0.644173
vt 0.267095 0.603815
vt 0.282982 0.599403
vt 0.381617 0.323032
vt 0.389152 0.363346
vt 0.759095 0.831416
vt 0.742753 0.828035
vt 0.103208 0.599403
vt 0.328558 0.406737
vt 0.001699 0.447527
vt 0.662299 0.755025
vt 0.279100 0.206608
vt 0.417125 0.206608
vt 0.275215 0.388859
vt 0.263365 0.206369
vt 0.879230 0.005006
vt 0.674958 0.010428
vt 0.672597 0.926176
vt 0.781187 0.709079
vt 0.647981 0.209737
vt 0.374908 0.669713
vt 0.910731 0.771550
vt 0.534532 0.195025
vt 0.861412 0.220413
vt 0.622342 0.220413
vt 0.294499 0.035001
vt 0.003911 0.405924
vt 0.274484 0.339104
vt 0.871603 0.047692
vt 0.879250 0.319902
vt 0.956166 0.047660
s 1
f 139/1/1 126/2/2 140/3/1
f 128/4/3 125/5/3 138/6/3
f 141/7/4 124/8/4 142/9/4
f 120/10/5 143/11/5 121/12/6
f 28/13/7 21/14/7 22/15/7
f 25/16/8 22/15/8 23/17/8
f 26/18/9 23/17/9 24/19/9
f 27/20/10 24/21/10 21/14/10
f 15/22/11 13/23/11 14/24/11
f 3/25/12 7/26/12 5/27/12
f 12/28/11 2/29/11 9/30/11
f 6/31/11 12/28/11 11/32/11
f 4/33/11 11/32/11 10/34/11
f 2/29/11 10/34/11 9/30/11
f 12/35/10 13/36/10 16/37/10
f 11/38/9 16/37/9 15/39/9
f 10/40/8 15/39/8 14/41/8
f 9/42/7 14/43/7 13/36/7
f 8/44/9 17/45/9 18/46/9
f 2/47/10 18/46/10 19/48/10
f 4/49/7 19/48/7 20/50/7
f 6/31/8 20/51/8 17/45/8
f 20/52/11 27/53/11 28/13/11
f 1/54/12 22/15/12 21/55/12
f 17/56/11 28/13/11 25/16/11
f 3/25/12 23/17/12 22/15/12
f 18/57/11 25/16/11 26/58/11
f 5/27/12 24/59/12 23/17/12
f 19/60/11 26/58/11 27/53/11
f 7/26/12 21/55/12 24/59/12
f 68/61/13 62/62/14 65/63/15
f 51/64/16 53/65/17 59/66/18
f 48/67/19 60/68/20 57/69/21
f 45/70/22 58/71/23 55/72/24
f 41/73/25 56/74/26 54/75/27
f 70/76/28 53/65/17 63/77/29
f 57/69/21 72/78/30 67/79/31
f 55/72/24 69/80/32 64/81/33
f 54/75/27 66/82/34 61/83/35
f 50/84/36 44/85/37 43/86/38
f 43/86/38 40/87/39 73/88/40
f 46/89/41 39/90/42 76/91/43
f 49/92/44 38/93/45 79/94/46
f 52/95/47 37/96/48 82/97/49
f 63/77/29 36/98/50 85/99/51
f 66/82/34 35/100/52 88/101/53
f 69/80/32 34/102/54 91/103/55
f 72/78/30 33/104/56 94/105/57
f 95/106/58 63/77/29 85/99/51
f 92/107/59 72/78/30 94/105/57
f 89/108/60 69/80/32 91/103/55
f 86/109/61 66/82/34 88/101/53
f 32/110/62 41/73/25 54/75/27
f 83/111/63 43/86/38 73/88/40
f 31/112/64 52/95/47 82/97/49
f 80/113/65 50/84/36 84/114/66
f 30/115/67 49/92/44 79/94/46
f 77/116/68 47/117/69 81/118/70
f 29/119/71 46/89/41 76/91/43
f 75/120/72 44/85/37 78/121/73
f 87/122/74 54/75/27 61/83/35
f 96/123/75 60/68/20 31/112/64
f 93/124/76 58/71/23 30/115/67
f 90/125/77 56/74/26 29/119/71
f 42/126/78 40/127/79 74/128/80
f 41/73/25 40/127/81 75/129/82
f 45/70/22 39/90/83 77/130/84
f 44/85/37 39/131/85 78/121/73
f 48/67/19 38/132/86 80/133/87
f 47/117/69 38/134/88 81/118/70
f 51/64/16 37/96/89 83/135/90
f 50/84/36 37/136/91 84/114/66
f 86/137/61 85/138/51 36/139/92
f 61/83/35 36/98/93 87/122/74
f 89/140/60 88/141/53 35/142/94
f 64/81/33 35/100/95 90/125/96
f 92/143/59 91/144/55 34/145/97
f 67/79/31 34/146/98 93/147/99
f 95/148/58 94/149/57 33/150/100
f 70/76/28 33/104/101 96/123/102
f 62/62/14 95/148/58 85/138/51
f 71/151/103 92/143/59 94/149/57
f 91/144/55 65/63/15 89/140/60
f 65/63/15 86/137/61 88/141/53
f 32/110/104 42/126/78 74/128/80
f 42/126/78 83/135/90 73/152/105
f 51/64/16 31/112/106 82/97/107
f 52/95/47 80/133/87 84/153/108
f 48/67/19 30/154/109 79/155/110
f 49/92/44 77/130/84 81/156/111
f 45/70/22 29/119/112 76/91/113
f 46/89/41 75/129/82 78/157/114
f 87/122/115 53/65/17 32/110/104
f 59/66/18 96/123/102 31/112/106
f 57/69/21 93/147/99 30/154/109
f 55/72/24 90/125/96 29/119/112
f 138/158/116 116/159/117 139/160/118
f 109/161/119 104/162/119 110/163/119
f 102/164/120 146/165/120 104/166/120
f 148/167/121 102/168/121 109/169/121
f 151/170/122 101/171/122 103/172/122
f 152/173/123 103/172/123 106/174/123
f 103/175/119 105/176/119 106/177/119
f 145/178/123 107/179/124 152/173/123
f 120/180/117 141/181/125 144/182/126
f 150/183/121 108/184/121 149/185/121
f 110/163/119 105/176/119 109/161/119
f 146/186/123 111/187/124 145/178/123
f 108/188/117 111/189/117 112/190/117
f 155/191/121 153/192/121 154/193/121
f 127/194/11 137/195/127 140/3/128
f 125/196/12 116/159/12 113/197/12
f 123/198/11 143/11/128 142/199/129
f 121/200/12 117/201/12 120/180/12
f 107/202/5 121/12/6 122/203/5
f 99/204/130 122/203/11 123/198/11
f 124/8/4 99/205/131 123/206/4
f 130/207/12 132/208/12 131/209/12
f 133/210/12 136/211/12 135/212/12
f 126/2/2 111/213/1 127/194/1
f 111/213/124 128/214/11 127/194/11
f 100/215/132 125/5/3 128/4/3
f 97/216/133 132/208/133 129/217/133
f 108/218/8 129/217/8 130/219/8
f 121/12/6 130/207/9 131/209/9
f 132/220/10 121/200/10 131/221/10
f 112/222/134 136/211/7 134/223/7
f 133/224/8 112/225/8 134/226/8
f 125/227/135 133/210/135 135/212/135
f 126/228/10 135/229/10 136/230/10
f 118/231/136 137/195/127 119/232/137
f 115/233/138 142/199/129 143/11/128
f 119/232/139 139/160/118 118/231/140
f 144/182/126 114/234/141 115/233/142
f 145/178/123 104/235/123 146/186/123
f 147/236/120 100/215/132 146/165/120
f 112/225/121 147/237/121 148/167/121
f 109/169/121 149/238/121 148/167/121
f 149/185/121 101/171/121 150/183/121
f 99/205/131 150/183/122 151/170/122
f 107/179/124 151/170/123 152/173/123
f 152/173/123 110/239/123 145/178/123
f 108/188/143 154/193/143 153/192/143
f 149/240/144 153/192/144 156/241/144
f 148/242/145 156/241/145 155/191/145
f 154/193/146 148/243/146 155/191/146
f 160/244/7 157/245/7 159/246/7
f 162/247/8 159/248/8 161/249/8
f 164/250/9 161/251/9 163/252/9
f 158/253/10 163/254/10 157/255/10
f 162/247/11 158/253/11 160/244/11
f 159/246/12 163/256/12 161/257/12
f 140/3/1 118/258/1 139/1/1
f 139/1/1 116/259/1 126/2/2
f 126/2/2 127/194/1 140/3/1
f 113/260/3 138/6/3 125/5/3
f 138/6/3 119/261/3 137/262/3
f 128/4/3 138/6/3 137/262/3
f 142/9/4 114/263/4 141/7/4
f 141/7/4 117/264/4 124/8/4
f 124/8/4 123/206/4 142/9/4
f 120/10/5 144/265/5 143/11/5
f 144/265/5 115/266/5 143/11/5
f 143/11/5 122/203/5 121/12/6
f 28/13/7 27/20/7 21/14/7
f 25/16/8 28/13/8 22/15/8
f 26/18/9 25/16/9 23/17/9
f 27/20/10 26/267/10 24/21/10
f 15/22/11 16/268/11 13/23/11
f 3/25/12 1/54/12 7/26/12
f 12/28/11 8/44/11 2/29/11
f 6/31/11 8/44/11 12/28/11
f 4/33/11 6/31/11 11/32/11
f 2/29/11 4/33/11 10/34/11
f 12/35/10 9/42/10 13/36/10
f 11/38/9 12/35/9 16/37/9
f 10/40/8 11/38/8 15/39/8
f 9/42/7 10/269/7 14/43/7
f 8/44/9 6/31/9 17/45/9
f 2/47/10 8/44/10 18/46/10
f 4/49/7 2/47/7 19/48/7
f 6/31/8 4/270/8 20/51/8
f 20/52/11 19/60/11 27/53/11
f 1/54/12 3/25/12 22/15/12
f 17/56/11 20/52/11 28/13/11
f 3/25/12 5/27/12 23/17/12
f 18/57/11 17/56/11 25/16/11
f 5/27/12 7/26/12 24/59/12
f 19/60/11 18/57/11 26/58/11
f 7/26/12 1/54/12 21/55/12
f 68/61/13 71/151/103 62/62/14
f 51/64/16 42/126/78 53/65/17
f 48/67/19 52/95/47 60/68/20
f 45/70/22 49/92/44 58/71/23
f 41/73/25 46/89/41 56/74/26
f 70/76/28 59/66/18 53/65/17
f 57/69/21 60/68/20 72/78/30
f 55/72/24 58/71/23 69/80/32
f 54/75/27 56/74/26 66/82/34
f 50/84/36 47/117/69 44/85/37
f 43/86/38 75/120/72 40/87/39
f 46/89/41 78/157/114 39/90/42
f 49/92/44 81/156/111 38/93/45
f 52/95/47 84/153/108 37/96/48
f 63/77/29 87/122/115 36/98/50
f 66/82/34 90/125/77 35/100/52
f 69/80/32 93/124/76 34/102/54
f 72/78/30 96/123/75 33/104/56
f 95/106/58 70/76/28 63/77/29
f 92/107/59 67/79/31 72/78/30
f 89/108/60 64/81/33 69/80/32
f 86/109/61 61/83/35 66/82/34
f 32/110/62 74/128/147 41/73/25
f 83/111/63 50/84/36 43/86/38
f 31/112/64 60/68/20 52/95/47
f 80/113/65 47/117/69 50/84/36
f 30/115/67 58/71/23 49/92/44
f 77/116/68 44/85/37 47/117/69
f 29/119/71 56/74/26 46/89/41
f 75/120/72 43/86/38 44/85/37
f 87/122/74 32/110/62 54/75/27
f 96/123/75 72/78/30 60/68/20
f 93/124/76 69/80/32 58/71/23
f 90/125/77 66/82/34 56/74/26
f 42/126/78 73/152/105 40/127/79
f 41/73/25 74/128/147 40/127/81
f 45/70/22 76/91/113 39/90/83
f 44/85/37 77/116/68 39/131/85
f 48/67/19 79/155/110 38/132/86
f 47/117/69 80/113/65 38/134/88
f 51/64/16 82/97/107 37/96/89
f 50/84/36 83/111/63 37/136/91
f 86/137/61 62/62/14 85/138/51
f 61/83/35 86/109/61 36/98/93
f 89/140/60 65/63/15 88/141/53
f 64/81/33 89/108/60 35/100/95
f 92/143/59 68/61/13 91/144/55
f 67/79/31 92/107/59 34/146/98
f 95/148/58 71/151/103 94/149/57
f 70/76/28 95/106/58 33/104/101
f 62/62/14 71/151/103 95/148/58
f 71/151/103 68/61/13 92/143/59
f 91/144/55 68/61/13 65/63/15
f 65/63/15 62/62/14 86/137/61
f 32/110/104 53/65/17 42/126/78
f 42/126/78 51/64/16 83/135/90
f 51/64/16 59/66/18 31/112/106
f 52/95/47 48/67/19 80/133/87
f 48/67/19 57/69/21 30/154/109
f 49/92/44 45/70/22 77/130/84
f 45/70/22 55/72/24 29/119/112
f 46/89/41 41/73/25 75/129/82
f 87/122/115 63/77/29 53/65/17
f 59/66/18 70/76/28 96/123/102
f 57/69/21 67/79/31 93/147/99
f 55/72/24 64/81/33 90/125/96
f 138/158/116 113/197/117 116/159/117
f 109/161/119 102/271/119 104/162/119
f 102/164/120 147/236/120 146/165/120
f 148/167/121 147/237/121 102/168/121
f 151/170/122 150/183/122 101/171/122
f 152/173/123 151/170/123 103/172/123
f 103/175/119 101/272/119 105/176/119
f 145/178/123 111/187/124 107/179/124
f 120/180/117 117/201/117 141/181/125
f 150/183/121 97/273/121 108/184/121
f 110/163/119 106/177/119 105/176/119
f 146/186/123 100/274/130 111/187/124
f 108/188/117 107/275/117 111/189/117
f 155/191/121 156/241/121 153/192/121
f 127/194/11 128/214/11 137/195/127
f 125/196/12 126/276/12 116/159/12
f 123/198/11 122/203/11 143/11/128
f 121/200/12 124/277/12 117/201/12
f 107/202/5 108/278/148 121/12/6
f 99/204/130 107/202/124 122/203/11
f 124/8/4 97/273/149 99/205/131
f 130/207/12 129/217/12 132/208/12
f 133/210/12 134/223/12 136/211/12
f 126/2/2 112/222/134 111/213/1
f 111/213/124 100/279/130 128/214/11
f 100/215/132 98/280/132 125/5/3
f 97/216/133 124/281/133 132/208/133
f 108/218/8 97/216/8 129/217/8
f 121/12/6 108/278/148 130/207/9
f 132/220/10 124/277/10 121/200/10
f 112/222/134 126/2/2 136/211/7
f 133/224/8 98/282/8 112/225/8
f 125/227/135 98/283/135 133/210/135
f 126/228/10 125/284/10 135/229/10
f 118/231/136 140/3/128 137/195/127
f 115/233/138 114/234/150 142/199/129
f 119/232/139 138/158/116 139/160/118
f 144/182/126 141/181/125 114/234/141
f 145/178/123 110/239/123 104/235/123
f 147/236/120 98/280/132 100/215/132
f 112/225/121 98/282/121 147/237/121
f 109/169/121 105/285/121 149/238/121
f 149/185/121 105/286/121 101/171/121
f 99/205/131 97/273/149 150/183/122
f 107/179/124 99/287/130 151/170/123
f 152/173/123 106/174/123 110/239/123
f 108/188/143 112/190/143 154/193/143
f 149/240/144 108/288/144 153/192/144
f 148/242/145 149/289/145 156/241/145
f 154/193/146 112/290/146 148/243/146
f 160/244/7 158/253/7 157/245/7
f 162/247/8 160/244/8 159/248/8
f 164/250/9 162/247/9 161/251/9
f 158/253/10 164/250/10 163/254/10
f 162/247/11 164/250/11 158/253/11
f 159/246/12 157/245/12 163/256/12
